<svg width="54" height="57" viewBox="0 0 54 57" fill="none" xmlns="http://www.w3.org/2000/svg">
<path d="M52.3007 42.2502L52.3005 42.2506C50.8907 44.5581 47.7486 45.3451 45.2968 44.0192C42.845 42.6931 42.0068 39.7353 43.4174 37.4265C44.8271 35.119 47.9692 34.3319 50.4209 35.6579C52.8882 36.9984 53.7255 39.9419 52.3007 42.2502ZM10.5677 19.5735C9.15793 21.881 6.01591 22.6681 3.56419 21.3421C1.11235 20.016 0.273997 17.0582 1.68462 14.7494C3.09438 12.442 6.23625 11.6549 8.68795 12.9808C11.1403 14.3211 11.9782 17.2651 10.5677 19.5735ZM1.6996 42.2506C0.289185 39.9421 1.12694 36.9984 3.57926 35.6579C6.03067 34.3321 9.15795 35.1186 10.5829 37.4267C11.9931 39.7351 11.1552 42.6789 8.70291 44.0192C6.23609 45.3451 3.10928 44.5579 1.6996 42.2506ZM43.4322 19.5735C42.0218 17.265 42.8596 14.3211 45.3121 12.9807C47.7635 11.655 50.8907 12.4417 52.3156 14.7498C53.7257 17.0583 52.888 20.002 50.4355 21.3423C47.9839 22.6681 44.842 21.8808 43.4322 19.5735ZM27 56C24.1673 56 21.8753 53.8454 21.8753 51.1771C21.8753 48.5087 24.1673 46.3541 27 46.3541C29.8328 46.3541 32.1247 48.5087 32.1247 51.1771C32.1247 53.8316 29.8326 56 27 56ZM27 10.6459C24.1673 10.6459 21.8753 8.49133 21.8753 5.82294C21.8753 3.15456 24.1673 1 27 1C29.8328 1 32.1247 3.15456 32.1247 5.82294C32.1247 8.49133 29.8328 10.6459 27 10.6459Z" fill="#D64292" stroke="#D64292"/>
<path d="M20.8911 25.0427L21.4944 25.1367L21.5187 24.4856L21.9439 13.1218L22.5293 13L26.5949 13.5155L26.9983 18.41L27.0311 18.8065L27.388 18.9205L28.7365 19.3511L28.7514 19.3557L28.7665 19.3597L30.3213 19.7554L30.4781 20.0596L30.5789 20.2553L30.7759 20.3298L31.5135 20.6085L31.6022 20.6419H31.6962H32.961L33.5801 20.9045L33.7215 20.9645L33.8717 20.9381L35.9858 20.5662L36.091 20.9459H36.5008H36.6678L36.7016 21.1149L36.7944 21.579H37.2384H37.7226L37.9346 24.3828L37.9399 24.4532L37.9608 24.5205L38.5507 26.4199L38.6217 26.6479L38.8218 26.7574L38.8566 26.7764L39 27.2216L38.7651 30.3042L38.456 30.9664L36.6118 31.2517L36.1106 31.3293L36.1428 31.8695L36.1598 32.1567L36.1203 32.4099L35.8965 32.8941L35.5973 33.1402L35.5272 33.1979L35.4774 33.2761L35.2687 33.6056L33.7235 33.9151L33.3465 33.9905L33.2833 34.3951L33.2535 34.5861L32.5875 35.1813L32.5611 35.2047L32.5379 35.2317L31.5896 36.3208L31.4549 36.4754L31.4434 36.6862L31.2327 40.5612L31.2268 40.6692L31.2574 40.772L31.3247 41L29.6638 40.7059L28.3063 39.2462L27.8949 36.8911L27.8111 36.4123H27.3554H27.2873L26.6934 35.3514L26.1843 33.8824L26.1597 33.8122L26.1197 33.7508L24.6657 31.5221L24.5834 31.396L24.4539 31.3291L23.8561 31.0212L23.6658 30.7048L23.5039 30.4352H23.2041H22.5088H22.4943L22.48 30.436L21.574 30.4866L21.4163 30.4956L21.287 30.5926L20.9498 30.8458L20.7733 30.9785L20.7285 31.2042L20.6445 31.6288L20.4685 31.917L20.4621 31.9276L20.4563 31.9384L20.2784 32.2588H20.0855H19.8564L18.9685 31.6021L18.4923 30.9609L18.4784 30.9424L18.463 30.9248L18.1625 30.5816L18.0167 29.3762L18.0117 29.336L18.0017 29.2967L17.6645 27.9798L17.554 27.5479H17.1353H16.9063L16.845 27.5025L15.4207 25.5016L15.017 24.7738L15 24.6943H17.6049L19.293 24.7932L20.8911 25.0427Z" stroke="#D64292" stroke-width="2"/>
</svg>
