<?xml version="1.0" standalone="no"?>
<!DOCTYPE svg PUBLIC "-//W3C//DTD SVG 20010904//EN"
 "http://www.w3.org/TR/2001/REC-SVG-20010904/DTD/svg10.dtd">
<svg version="1.0" xmlns="http://www.w3.org/2000/svg"
 width="944.000000pt" height="944.000000pt" viewBox="0 0 944.000000 944.000000"
 preserveAspectRatio="xMidYMid meet">
<metadata>
Created by potrace 1.11, written by Peter Selinger 2001-2013
</metadata>
<g transform="translate(0.000000,944.000000) scale(0.100000,-0.100000)"
fill="#000000" stroke="none">
<path d="M4463 9420 c-45 -9 -89 -23 -98 -30 -8 -7 -15 -9 -15 -6 0 9 -160
-73 -178 -91 -7 -7 -17 -13 -21 -13 -17 0 -170 -159 -208 -216 -67 -99 -124
-217 -138 -284 -1 -3 -6 -23 -13 -44 -6 -22 -9 -43 -6 -48 3 -4 1 -8 -3 -8 -5
0 -9 -8 -10 -17 0 -10 -4 -52 -8 -93 -8 -89 -8 -87 -1 -173 5 -78 22 -163 42
-221 8 -22 17 -63 20 -91 3 -27 8 -53 10 -56 4 -7 -170 -109 -186 -109 -5 0
-10 -4 -10 -10 0 -5 -9 -10 -20 -10 -11 0 -20 -4 -20 -8 0 -4 -12 -13 -27 -19
-16 -6 -55 -27 -88 -45 -33 -19 -89 -50 -125 -70 -103 -55 -181 -98 -235 -128
-27 -15 -75 -41 -105 -57 -30 -17 -82 -45 -115 -63 -159 -88 -202 -112 -225
-123 -14 -6 -27 -14 -30 -17 -3 -3 -30 -18 -60 -34 -98 -51 -205 -109 -215
-116 -5 -4 -48 -28 -95 -53 -47 -24 -114 -61 -150 -81 -36 -20 -83 -46 -106
-58 l-41 -20 -53 40 c-61 46 -194 114 -260 133 -63 17 -62 17 -90 24 -85 19
-256 26 -320 14 -19 -4 -52 -10 -73 -13 -48 -8 -148 -41 -213 -72 -125 -59
-260 -171 -336 -279 -33 -47 -112 -187 -109 -193 1 -1 -6 -28 -16 -60 -22 -75
-22 -76 -27 -149 -2 -34 -7 -67 -11 -73 -3 -5 -3 -10 2 -10 4 0 8 -24 8 -53
-1 -103 49 -260 118 -372 25 -40 111 -150 124 -158 7 -4 23 -18 36 -31 88 -90
289 -192 417 -212 19 -3 53 -9 75 -13 59 -11 270 -4 305 9 3 1 8 2 12 1 11 -1
135 38 184 59 24 11 47 19 49 19 3 1 40 24 83 53 184 124 303 284 363 489 33
113 34 294 3 411 -13 49 -29 98 -34 109 -9 16 -6 21 17 31 15 7 30 15 33 18 3
4 50 30 105 60 55 29 120 65 145 79 117 65 187 102 203 108 9 3 17 9 17 14 0
5 5 9 11 9 7 0 43 18 81 40 39 22 76 40 84 40 8 0 14 4 14 8 0 4 37 27 83 51
45 24 102 55 127 68 25 14 79 43 120 65 41 23 93 51 115 64 71 40 189 104 235
127 25 12 47 24 50 27 3 3 30 18 60 35 30 16 82 44 115 62 33 18 83 45 112 60
l52 27 66 -67 c36 -37 79 -74 95 -84 17 -9 30 -21 30 -25 0 -4 6 -8 14 -8 8 0
16 -4 18 -9 5 -12 166 -88 218 -101 25 -7 52 -15 60 -18 8 -3 24 -6 35 -7 11
-1 40 -6 65 -10 75 -12 233 -7 310 10 14 4 35 8 48 11 65 13 227 86 244 109 4
6 8 6 8 2 0 -9 120 80 132 98 7 9 111 -40 308 -146 76 -42 209 -112 335 -179
39 -20 106 -56 150 -80 44 -23 132 -69 195 -103 63 -33 123 -67 133 -75 9 -8
17 -12 17 -7 0 4 6 3 13 -3 6 -5 57 -34 112 -62 55 -29 119 -63 143 -76 24
-13 100 -54 170 -91 271 -143 267 -140 268 -165 0 -13 -3 -34 -8 -47 -7 -18
-15 -91 -20 -176 -1 -22 14 -150 19 -158 3 -4 7 -22 10 -38 12 -78 104 -256
170 -327 54 -59 80 -85 106 -105 15 -12 40 -32 55 -44 28 -24 202 -116 202
-108 0 3 9 1 19 -5 15 -8 19 -20 18 -60 0 -27 2 -53 6 -56 3 -4 2 -14 -3 -24
-5 -10 -7 -20 -3 -23 5 -6 7 -67 3 -92 -4 -23 -1 -117 4 -122 2 -3 1 -15 -4
-27 -4 -13 -4 -29 0 -36 5 -8 4 -22 -1 -32 -6 -12 -6 -18 0 -18 6 0 6 -11 2
-28 -5 -15 -5 -37 0 -49 4 -12 4 -25 0 -27 -5 -3 -7 -18 -4 -33 4 -30 6 -91 3
-108 -4 -23 -1 -117 4 -122 2 -3 1 -15 -4 -27 -4 -13 -4 -29 0 -36 5 -8 4 -22
-1 -32 -6 -12 -6 -18 0 -18 6 0 6 -11 2 -28 -5 -15 -5 -37 0 -49 4 -12 4 -25
0 -27 -5 -3 -7 -18 -4 -33 4 -29 6 -93 3 -105 -4 -22 -2 -99 3 -105 4 -3 2
-13 -3 -22 -5 -10 -5 -23 -1 -29 4 -7 5 -33 1 -58 -4 -24 -3 -47 2 -50 4 -3 4
-13 -1 -23 -5 -9 -6 -23 -2 -29 4 -7 5 -33 1 -58 -4 -24 -3 -47 2 -50 4 -3 4
-13 -1 -23 -5 -9 -6 -23 -2 -29 4 -7 5 -33 1 -58 -4 -24 -3 -47 2 -50 4 -3 4
-13 -1 -23 -5 -9 -6 -23 -1 -30 4 -8 5 -25 1 -40 -5 -14 -4 -38 0 -54 4 -15 4
-27 0 -27 -4 0 -5 -16 -3 -36 3 -21 0 -34 -5 -31 -12 7 -162 -64 -220 -105
-100 -71 -193 -162 -224 -220 -6 -13 -15 -25 -19 -28 -10 -7 -66 -118 -85
-169 -40 -107 -57 -275 -40 -381 3 -19 7 -44 9 -55 12 -73 89 -265 107 -265 5
0 9 -6 9 -13 0 -14 4 -19 80 -110 48 -57 165 -154 181 -149 5 1 9 -2 9 -8 0
-19 217 -111 300 -127 125 -23 292 -22 398 2 50 11 59 14 107 30 319 108 551
391 591 720 6 57 6 49 -1 140 -4 58 -16 119 -38 200 -2 6 -13 32 -25 59 -12
27 -22 51 -22 53 0 3 -21 37 -47 77 -85 129 -226 250 -368 315 -71 33 -154 61
-182 61 -12 0 -24 3 -24 8 -9 53 -11 87 -7 150 2 23 1 42 -2 42 -4 0 -4 116 0
130 1 3 1 39 0 80 -2 99 -2 112 2 198 2 39 1 72 -2 72 -4 0 -4 116 0 130 1 3
1 39 0 80 -2 99 -2 112 2 198 2 39 1 72 -2 72 -4 0 -4 116 0 130 1 3 1 39 0
80 -2 99 -2 112 2 198 2 39 1 72 -2 72 -4 0 -4 116 0 130 3 7 2 144 -1 155 -6
33 4 43 59 58 32 9 71 21 87 28 17 7 36 13 43 15 7 1 52 24 99 51 233 132 407
393 428 645 2 26 6 52 10 58 3 5 3 10 -2 10 -4 0 -8 26 -7 58 0 56 -19 167
-36 207 -4 11 -14 36 -21 55 -37 103 -167 275 -266 352 -67 52 -174 110 -253
137 -62 22 -73 25 -122 36 -158 34 -354 23 -498 -29 -25 -9 -52 -18 -60 -20
-26 -7 -167 -86 -204 -116 -10 -8 -39 -34 -64 -58 l-44 -43 -57 27 c-31 15
-64 34 -75 43 -10 9 -20 15 -22 13 -3 -2 -42 18 -88 43 -46 25 -88 45 -94 45
-6 0 -12 3 -14 8 -1 4 -23 17 -48 29 -25 12 -76 40 -115 61 -38 21 -119 64
-180 96 -139 74 -241 128 -330 176 -90 48 -210 112 -305 162 -41 22 -81 45
-87 50 -7 6 -13 7 -13 3 0 -4 -6 -3 -12 3 -7 5 -44 27 -83 47 -153 82 -201
108 -214 119 -8 6 -16 10 -18 8 -3 -2 -24 10 -61 34 -2 1 4 23 12 48 25 73 28
95 31 226 2 144 -17 237 -76 360 -14 30 -29 79 -33 109 -4 30 -10 59 -13 65
-4 6 -8 23 -10 40 -6 57 -119 293 -145 304 -4 2 -8 8 -8 13 0 24 -151 175
-222 222 -67 44 -171 97 -191 97 -7 0 -17 3 -21 7 -15 16 -168 39 -257 40 -53
0 -130 -7 -176 -17z"/>
<path d="M3905 7185 c-33 -8 -75 -16 -94 -20 -18 -3 -38 -9 -45 -13 -12 -8
-12 3 -20 -262 -4 -107 -9 -242 -11 -300 -2 -58 -7 -167 -10 -244 -3 -76 -7
-142 -10 -146 -3 -5 -1 -11 5 -15 6 -4 7 -11 4 -17 -6 -10 -7 -33 -19 -368 -4
-96 -8 -213 -10 -260 -2 -47 -4 -122 -5 -167 -2 -80 -7 -89 -35 -83 -5 1 -23
4 -38 6 -15 2 -47 6 -70 10 -67 10 -111 15 -132 14 -11 -1 -24 -1 -30 0 -5 1
-185 4 -398 6 -375 6 -389 5 -383 -13 3 -10 10 -38 15 -63 12 -55 19 -86 27
-125 14 -62 72 -153 301 -473 37 -51 99 -102 126 -102 11 0 47 -113 53 -170 3
-27 16 -135 19 -155 1 -11 3 -30 4 -42 0 -12 15 -37 31 -55 17 -18 59 -70 93
-115 34 -46 68 -83 75 -83 6 0 12 -4 12 -8 0 -4 14 -16 32 -26 32 -19 44 -28
102 -77 24 -20 37 -24 58 -18 15 4 29 4 32 2 9 -10 66 -11 71 -2 3 4 16 5 28
0 40 -14 56 -1 103 82 71 125 74 131 74 152 1 41 14 48 113 53 l95 4 16 -28
c10 -17 42 -41 77 -59 56 -28 65 -38 142 -154 45 -69 85 -133 89 -143 4 -10
13 -18 19 -18 7 0 10 -3 6 -6 -3 -4 0 -13 8 -21 8 -7 19 -28 24 -46 27 -92 76
-219 106 -272 79 -142 89 -161 104 -185 9 -14 25 -27 36 -28 25 -5 22 0 30
-52 4 -25 9 -56 12 -70 2 -14 6 -36 8 -50 2 -14 6 -38 10 -55 3 -16 10 -55 15
-84 6 -34 19 -65 34 -80 13 -15 53 -57 89 -96 36 -38 84 -90 106 -114 23 -24
41 -47 41 -52 0 -8 21 -16 62 -24 91 -18 275 -51 333 -60 11 -2 20 -4 20 -5 0
-1 9 -3 20 -4 11 -2 38 -6 60 -10 113 -19 105 -20 95 11 -48 152 -73 246 -72
268 3 53 13 227 17 295 3 47 7 128 10 180 4 68 9 98 20 106 8 6 15 14 15 17 0
15 134 154 203 211 26 21 47 43 47 50 0 25 18 36 71 46 30 6 65 13 79 15 14 3
47 10 74 15 27 6 50 11 51 13 31 55 74 112 97 128 29 21 85 126 95 179 3 14 6
32 8 40 2 8 4 18 4 22 1 5 4 7 9 6 4 -1 36 2 72 7 36 5 70 10 75 11 12 1 104
15 128 20 31 5 26 -1 93 139 36 77 33 64 49 270 3 44 8 107 11 140 2 33 7 89
10 125 8 83 7 99 -9 140 -3 8 -13 38 -21 65 -9 28 -25 56 -35 62 -12 8 -29 45
-46 100 -14 48 -32 106 -40 128 -14 39 -17 66 -30 230 -3 44 -8 103 -10 130
-3 28 -7 89 -10 136 -11 153 -7 144 -51 146 -22 1 -61 2 -87 2 -33 1 -47 5
-45 14 1 6 -1 29 -5 50 -8 37 -8 37 -58 37 -38 0 -51 4 -55 18 -17 49 -29 70
-39 64 -12 -8 -25 -10 -83 -17 -24 -2 -46 -7 -51 -9 -4 -3 -27 -7 -52 -10 -24
-3 -55 -8 -69 -11 -14 -3 -41 -8 -60 -11 -19 -3 -54 -10 -77 -15 -42 -9 -48
-8 -128 27 -19 8 -71 12 -140 12 -141 -1 -182 14 -212 76 -21 43 -22 44 -112
66 -50 12 -93 22 -96 21 -2 0 -23 6 -46 14 -23 8 -54 16 -70 17 -16 1 -29 5
-29 8 0 3 -32 15 -71 25 -39 11 -74 26 -79 35 -7 13 -14 82 -25 250 -1 19 -5
65 -9 103 -3 37 -8 97 -11 135 -3 37 -8 85 -10 107 -10 107 -18 212 -17 233 2
27 -20 37 -98 46 -30 3 -93 10 -140 16 -47 6 -101 13 -120 15 -19 2 -48 6 -65
9 -16 2 -74 10 -129 16 -54 7 -108 14 -120 16 -55 11 -177 11 -231 -1z m280
-329 c12 -2 52 -7 90 -11 38 -3 72 -8 75 -10 3 -2 37 -6 75 -10 39 -3 73 -9
77 -13 3 -4 9 -45 13 -92 3 -47 8 -105 10 -130 2 -25 7 -74 9 -110 16 -200 26
-325 31 -355 1 -11 3 -45 4 -76 l1 -56 132 -43 c72 -23 137 -43 142 -44 6 -1
16 -4 21 -7 6 -3 48 -16 95 -29 47 -12 92 -25 100 -28 8 -3 24 -7 35 -9 37 -6
44 -12 70 -53 14 -22 33 -40 43 -40 10 0 26 -6 37 -14 11 -7 24 -14 28 -14 7
0 22 -5 82 -28 11 -4 22 -8 25 -9 3 0 16 -5 30 -10 14 -4 70 -8 125 -7 88 0
108 -3 171 -28 42 -17 82 -27 97 -25 15 3 39 7 55 10 15 3 45 8 67 11 22 3 54
9 70 13 36 9 55 4 55 -15 0 -10 13 -14 44 -14 l44 0 7 -50 7 -50 63 0 c35 0
66 -4 69 -8 3 -5 7 -44 11 -88 16 -237 18 -245 43 -320 12 -33 23 -71 26 -85
3 -13 18 -64 35 -114 17 -49 31 -97 31 -106 0 -8 10 -25 21 -38 12 -13 22 -35
22 -49 0 -28 -12 -202 -18 -262 -2 -19 -5 -56 -6 -82 -2 -51 1 -50 -114 -65
-69 -9 -91 -12 -115 -17 -49 -9 -165 -27 -188 -29 -23 -1 -23 -2 -17 -112 4
-60 8 -120 10 -133 6 -38 -79 -118 -136 -127 -24 -4 -52 -9 -61 -11 -10 -2
-28 -6 -40 -9 -71 -15 -136 -27 -155 -29 -32 -2 -38 -13 -52 -89 -11 -63 -16
-73 -64 -120 -29 -29 -68 -70 -87 -92 -155 -178 -153 -175 -156 -218 -1 -23
-5 -89 -8 -147 -3 -58 -9 -152 -12 -210 -3 -58 -7 -124 -8 -147 -1 -23 -4 -45
-8 -48 -8 -8 -161 160 -165 182 -2 10 -5 34 -8 53 -2 19 -9 60 -15 90 -6 30
-13 69 -15 85 -4 24 -15 93 -20 115 0 3 -7 42 -15 88 -7 45 -16 83 -19 83 -3
1 -32 2 -65 3 -58 2 -59 2 -81 44 -20 38 -30 62 -40 97 -30 108 -102 262 -142
303 -8 8 -20 27 -28 42 -8 16 -44 73 -81 127 -36 54 -72 109 -79 123 -7 14
-38 38 -69 53 -58 30 -74 45 -119 122 l-28 47 -224 -3 c-124 -2 -225 -8 -225
-12 0 -5 -4 -6 -10 -2 -11 7 -108 -55 -155 -99 -11 -10 -30 -25 -42 -33 -14
-9 -23 -26 -23 -42 0 -46 -15 -56 -35 -24 -10 15 -22 32 -27 38 -37 45 -53 73
-54 95 -3 62 -14 126 -33 195 -6 22 -12 49 -14 60 -2 11 -7 27 -10 35 -3 8
-18 68 -34 133 -31 131 -20 120 -128 119 -49 -1 -51 0 -85 49 -19 27 -41 56
-47 64 -7 7 -13 16 -13 20 0 13 353 -6 475 -26 106 -16 108 -16 145 -24 19 -3
49 -8 65 -10 17 -2 30 -4 30 -5 0 -1 14 -3 30 -4 17 -2 52 -7 79 -10 63 -9 59
-9 71 -7 6 0 10 24 9 54 0 28 4 58 9 65 5 6 6 12 1 12 -5 0 -8 19 -6 42 1 24
4 90 6 148 2 58 7 175 10 260 11 276 17 422 21 560 14 420 29 778 34 803 1 7
63 3 116 -7z"/>
<path d="M1278 3595 c-2 -2 -19 -5 -38 -8 -229 -31 -456 -167 -598 -359 -39
-53 -117 -198 -107 -198 3 0 -1 -12 -9 -28 -8 -15 -17 -43 -20 -62 -3 -19 -10
-51 -14 -70 -8 -34 -7 -211 1 -260 21 -119 76 -247 151 -350 62 -84 195 -209
224 -210 6 0 12 -4 12 -10 0 -5 7 -10 15 -10 8 0 15 -5 15 -11 0 -5 4 -8 9 -4
5 3 12 1 16 -5 3 -5 23 -17 43 -26 20 -8 52 -22 70 -30 136 -59 434 -77 549
-33 13 5 23 7 23 5 0 -7 133 42 185 67 28 14 84 49 125 79 63 45 78 52 95 43
11 -5 70 -37 130 -69 61 -33 148 -79 195 -104 47 -24 108 -57 135 -72 28 -15
95 -51 150 -80 55 -29 129 -69 165 -88 36 -20 88 -47 115 -60 28 -14 62 -34
78 -44 15 -11 27 -17 27 -14 0 4 17 -4 38 -17 20 -13 71 -41 112 -62 41 -22
98 -51 125 -66 28 -15 79 -42 115 -61 425 -225 443 -235 435 -249 -19 -29 -27
-285 -12 -357 18 -85 69 -208 115 -277 116 -176 257 -286 458 -360 92 -34 181
-50 309 -56 21 -1 151 11 180 16 86 17 255 79 263 98 2 4 12 7 23 7 11 0 22 7
25 15 4 8 11 15 17 15 16 0 125 88 166 134 119 130 199 288 219 431 8 54 8
231 0 280 -15 88 -92 280 -128 315 -3 3 -19 23 -35 45 -52 70 -188 194 -212
195 -7 0 -13 3 -13 8 0 4 -15 13 -32 21 -18 8 -40 19 -48 26 -16 13 -153 65
-185 70 -11 2 -31 6 -45 9 -106 24 -238 24 -385 0 -49 -8 -172 -52 -234 -84
-66 -33 -179 -115 -229 -166 l-33 -34 -62 34 c-80 44 -241 128 -342 180 -44
23 -82 43 -85 46 -3 3 -39 23 -80 44 -41 21 -128 68 -193 103 -65 34 -122 63
-126 63 -5 0 -14 7 -21 15 -7 9 -15 13 -17 11 -3 -2 -27 9 -54 25 -28 16 -51
29 -53 29 -2 0 -39 20 -82 43 -44 24 -133 72 -199 107 -130 68 -241 127 -320
170 -27 15 -75 40 -105 56 -30 16 -57 30 -59 31 -2 1 6 38 18 81 35 130 41
277 18 392 -11 49 -39 135 -48 144 -5 6 -9 16 -9 22 0 16 -66 130 -98 169 -63
78 -154 165 -172 165 -5 0 -10 4 -10 8 0 12 -138 89 -201 113 -53 20 -144 47
-189 55 -28 5 -258 13 -262 9z"/>
</g>
</svg>
